<?xml version="1.0" encoding="UTF-8" standalone="no"?>
<!DOCTYPE svg PUBLIC "-//W3C//DTD SVG 1.1//EN"
 "http://www.w3.org/Graphics/SVG/1.1/DTD/svg11.dtd">
<!-- Generated by graphviz version 2.40.1 (20161225.0304)
 -->
<!-- Title: dependencies Pages: 1 -->
<svg width="504pt" height="211pt"
 viewBox="0.00 0.00 504.00 211.00" xmlns="http://www.w3.org/2000/svg" xmlns:xlink="http://www.w3.org/1999/xlink">
<g id="graph0" class="graph" transform="scale(1 1) rotate(0) translate(4 207)">
<title>dependencies</title>
<polygon fill="#ffffff" stroke="transparent" points="-4,4 -4,-207 500,-207 500,4 -4,4"/>
<text text-anchor="start" x="227.0091" y="-42.4" font-family="sans-serif" font-weight="bold" font-size="14.00" fill="#000000">Legend</text>
<polygon fill="#ffffb3" stroke="transparent" points="14,-10 14,-30 34,-30 34,-10 14,-10"/>
<text text-anchor="start" x="37.629" y="-15.4" font-family="sans-serif" font-size="14.00" fill="#000000"> &#160;Declarations</text>
<polygon fill="#8dd3c7" stroke="transparent" points="127,-10 127,-30 147,-30 147,-10 127,-10"/>
<text text-anchor="start" x="150.7251" y="-15.4" font-family="sans-serif" font-size="14.00" fill="#000000"> &#160;Module</text>
<polygon fill="#80b1d3" stroke="transparent" points="213,-10 213,-30 233,-30 233,-10 213,-10"/>
<text text-anchor="start" x="236.7812" y="-15.4" font-family="sans-serif" font-size="14.00" fill="#000000"> &#160;Bootstrap</text>
<polygon fill="#fdb462" stroke="transparent" points="310,-10 310,-30 330,-30 330,-10 310,-10"/>
<text text-anchor="start" x="333.6732" y="-15.4" font-family="sans-serif" font-size="14.00" fill="#000000"> &#160;Providers</text>
<polygon fill="#fb8072" stroke="transparent" points="406,-10 406,-30 426,-30 426,-10 406,-10"/>
<text text-anchor="start" x="429.7258" y="-15.4" font-family="sans-serif" font-size="14.00" fill="#000000"> &#160;Exports</text>
<g id="clust1" class="cluster">
<title>cluster_EdcsModule</title>
<polygon fill="none" stroke="#000000" stroke-dasharray="1,5" points="30,-70 30,-195 466,-195 466,-70 30,-70"/>
</g>
<g id="clust2" class="cluster">
<title>cluster_EdcsModule_declarations</title>
<polygon fill="none" stroke="#000000" points="194,-78 194,-130 458,-130 458,-78 194,-78"/>
</g>
<g id="clust5" class="cluster">
<title>cluster_EdcsModule_imports</title>
<polygon fill="none" stroke="#000000" points="38,-78 38,-130 186,-130 186,-78 38,-78"/>
</g>
<!-- EdcsComponent -->
<g id="node1" class="node">
<title>EdcsComponent</title>
<polygon fill="#ffffb3" stroke="#000000" points="450.0452,-122 341.9548,-122 341.9548,-86 450.0452,-86 450.0452,-122"/>
<text text-anchor="middle" x="396" y="-99.8" font-family="Times,serif" font-size="14.00" fill="#000000">EdcsComponent</text>
</g>
<!-- EdcsModule -->
<g id="node3" class="node">
<title>EdcsModule</title>
<polygon fill="#8dd3c7" stroke="#000000" points="306.2619,-187 303.2619,-191 282.2619,-191 279.2619,-187 219.7381,-187 219.7381,-151 306.2619,-151 306.2619,-187"/>
<text text-anchor="middle" x="263" y="-164.8" font-family="Times,serif" font-size="14.00" fill="#000000">EdcsModule</text>
</g>
<!-- EdcsComponent&#45;&gt;EdcsModule -->
<g id="edge1" class="edge">
<title>EdcsComponent&#45;&gt;EdcsModule</title>
<path fill="none" stroke="#000000" d="M396,-122.1061C396,-141.3391 396,-169 396,-169 396,-169 316.5492,-169 316.5492,-169"/>
<polygon fill="#000000" stroke="#000000" points="316.5492,-165.5001 306.5492,-169 316.5491,-172.5001 316.5492,-165.5001"/>
</g>
<!-- UpdateComponent -->
<g id="node2" class="node">
<title>UpdateComponent</title>
<polygon fill="#ffffb3" stroke="#000000" points="323.759,-122 202.241,-122 202.241,-86 323.759,-86 323.759,-122"/>
<text text-anchor="middle" x="263" y="-99.8" font-family="Times,serif" font-size="14.00" fill="#000000">UpdateComponent</text>
</g>
<!-- UpdateComponent&#45;&gt;EdcsModule -->
<g id="edge2" class="edge">
<title>UpdateComponent&#45;&gt;EdcsModule</title>
<path fill="none" stroke="#000000" d="M263,-122.1061C263,-122.1061 263,-140.991 263,-140.991"/>
<polygon fill="#000000" stroke="#000000" points="259.5001,-140.9909 263,-150.991 266.5001,-140.991 259.5001,-140.9909"/>
</g>
<!-- EdcsRoutingModule -->
<g id="node4" class="node">
<title>EdcsRoutingModule</title>
<polygon fill="#8dd3c7" stroke="#000000" points="177.8795,-122 174.8795,-126 153.8795,-126 150.8795,-122 46.1205,-122 46.1205,-86 177.8795,-86 177.8795,-122"/>
<text text-anchor="middle" x="112" y="-99.8" font-family="Times,serif" font-size="14.00" fill="#000000">EdcsRoutingModule</text>
</g>
<!-- EdcsRoutingModule&#45;&gt;EdcsModule -->
<g id="edge3" class="edge">
<title>EdcsRoutingModule&#45;&gt;EdcsModule</title>
<path fill="none" stroke="#000000" d="M112,-122.1061C112,-141.3391 112,-169 112,-169 112,-169 209.7295,-169 209.7295,-169"/>
<polygon fill="#000000" stroke="#000000" points="209.7295,-172.5001 219.7295,-169 209.7294,-165.5001 209.7295,-172.5001"/>
</g>
</g>
</svg>
